<?xml version="1.0" encoding="UTF-8" standalone="no"?>
<!-- Created with Inkscape (http://www.inkscape.org/) -->

<svg
   width="270.93552mm"
   height="270.92068mm"
   viewBox="0 0 270.93552 270.92068"
   version="1.1"
   id="svg1"
   xml:space="preserve"
   inkscape:version="1.4.3 (0d15f75042, 2025-12-25)"
   sodipodi:docname="icon.svg"
   xmlns:inkscape="http://www.inkscape.org/namespaces/inkscape"
   xmlns:sodipodi="http://sodipodi.sourceforge.net/DTD/sodipodi-0.dtd"
   xmlns="http://www.w3.org/2000/svg"
   xmlns:svg="http://www.w3.org/2000/svg"><sodipodi:namedview
     id="namedview1"
     pagecolor="#ffffff"
     bordercolor="#000000"
     borderopacity="0.25"
     inkscape:showpageshadow="2"
     inkscape:pageopacity="0.0"
     inkscape:pagecheckerboard="0"
     inkscape:deskcolor="#d1d1d1"
     inkscape:document-units="mm"
     showguides="true"
     inkscape:zoom="0.18376029"
     inkscape:cx="462.55913"
     inkscape:cy="117.00025"
     inkscape:window-width="990"
     inkscape:window-height="1152"
     inkscape:window-x="0"
     inkscape:window-y="0"
     inkscape:window-maximized="1"
     inkscape:current-layer="layer1"><inkscape:page
       x="0"
       y="0"
       width="270.93552"
       height="270.92068"
       id="page2"
       margin="0"
       bleed="0" /></sodipodi:namedview><defs
     id="defs1"><clipPath
       clipPathUnits="userSpaceOnUse"
       id="clipPath7"><rect
         style="fill:#8f9194;fill-opacity:1;stroke-width:0.264583"
         id="rect8"
         width="270.94247"
         height="270.92361"
         x="-25.973221"
         y="-7.2255521"
         rx="62.330002"
         ry="62.334" /></clipPath><clipPath
       clipPathUnits="userSpaceOnUse"
       id="clipPath8"><rect
         style="fill:#8f9194;fill-opacity:1;stroke-width:0.264583"
         id="rect9"
         width="270.94247"
         height="270.92361"
         x="-25.973221"
         y="-7.2255521"
         rx="62.330002"
         ry="62.334" /></clipPath><clipPath
       clipPathUnits="userSpaceOnUse"
       id="clipPath9"><rect
         style="fill:#8f9194;fill-opacity:1;stroke-width:0.264583"
         id="rect10"
         width="270.94247"
         height="270.92361"
         x="-25.973221"
         y="-7.2255521"
         rx="62.330002"
         ry="62.334" /></clipPath><clipPath
       clipPathUnits="userSpaceOnUse"
       id="clipPath10"><rect
         style="fill:#8f9194;fill-opacity:1;stroke-width:0.264583"
         id="rect11"
         width="270.94247"
         height="270.92361"
         x="-25.973221"
         y="-7.2255521"
         rx="62.330002"
         ry="62.334" /></clipPath><clipPath
       clipPathUnits="userSpaceOnUse"
       id="clipPath11"><rect
         style="fill:#8f9194;fill-opacity:1;stroke-width:0.264583"
         id="rect12"
         width="270.94247"
         height="270.92361"
         x="-25.973221"
         y="-7.2255521"
         rx="62.330002"
         ry="62.334" /></clipPath></defs><g
     inkscape:label="Layer 1"
     inkscape:groupmode="layer"
     id="layer1"
     style="display:inline"
     transform="translate(25.973221,7.2226135)"><path
       style="display:inline;fill:#1f232a;fill-opacity:1;stroke:none"
       d="M -25.972019,-7.2226129 V 263.71071 H 244.9613 V -7.2226129 H -25.972019 M 146.27172,35.225456 c 3.24199,-0.848656 6.11077,3.936242 8.73125,5.248985 2.32287,1.163656 4.24251,-2.591347 6.57927,-0.933987 1.61254,1.143713 1.09365,3.91956 1.09365,5.62443 v 16.139583 94.456243 c 0,4.0535 -0.16409,8.13846 0.21967,12.17083 0.12112,1.2726 -0.1987,2.72229 0.22986,3.94508 1.01396,2.89311 4.82975,2.68758 6.95778,4.36114 3.65191,2.87198 4.73027,13.29353 -0.52815,15.17291 -2.69736,0.96402 -6.42506,0.33337 -9.26041,0.33337 H 140.71547 74.569642 53.932143 c -3.407301,0 -6.720059,0.58285 -9.409656,-1.8972 -3.52803,-3.25316 -2.489213,-10.88512 1.221865,-13.68463 1.965126,-1.48242 4.624274,-1.35344 6.22118,-3.47225 1.05705,-1.40252 0.908278,-3.36388 0.908278,-5.023 v -64.29375 c 0,-5.377348 0.217219,-10.781362 0.217219,-16.139578 0,-2.526783 -0.950516,-5.886866 0.50814,-8.201065 1.39977,-2.220763 4.326698,-3.923501 6.418391,-5.439671 3.259248,-2.362485 6.102283,-5.717061 10.054166,-6.860789 3.051267,-0.883086 6.652355,-0.0036 9.524999,-1.344766 3.10837,-1.451236 5.081457,-6.444067 8.466666,-6.954307 4.024674,-0.606617 8.2954,3.805194 11.902374,2.410657 4.090095,-1.581331 5.859605,-7.750383 9.552545,-10.102758 2.8451,-1.812309 6.72358,-1.72911 9.7649,-3.293598 4.29989,-2.211928 8.30853,-6.203497 12.9656,-7.626181 2.10045,-0.64166 3.90664,1.327067 5.82083,0.761501 3.12539,-0.923426 4.99664,-4.518119 8.20208,-5.357199 m -24.34166,44.864427 c -1.22671,3.501821 -4.12632,6.295206 -4.97032,10.054166 -1.13178,5.040599 -0.32135,10.984021 -0.32135,16.139581 v 31.22083 16.66875 c 0,3.71353 0.36849,7.01217 -1.7886,10.24321 -5.50788,8.25011 -17.189787,2.93783 -18.270737,-5.74529 -0.872177,-7.00607 -0.049,-14.63144 -0.049,-21.69583 V 93.583632 c -1.804226,0.137217 -2.433799,1.630197 -3.512262,2.910416 -3.484226,4.136052 -2.308571,9.912862 -2.308571,15.081252 v 39.42291 c 0,5.7802 0.862843,12.15351 -4.498119,15.98136 -5.735696,4.09544 -12.784466,-1.32429 -13.447612,-7.51469 -0.738359,-6.89259 -0.04594,-14.23175 -0.04594,-21.16667 0,-10.45834 -0.473001,-21.06071 0.240901,-31.48541 0.293207,-4.28154 0.02368,-8.672551 0.02368,-12.964585 0,-2.0075 0.328832,-4.225501 -2.38125,-3.891978 -1.519941,0.187053 -3.646095,0.268492 -4.678388,1.526247 -0.960075,1.169761 -0.613278,3.069128 -0.613278,4.482398 v 10.583328 c 0,17.37015 0.205616,34.75418 -10e-4,52.12292 -0.03772,3.17086 -0.889537,6.35 -3.514312,8.37153 -1.086191,0.83656 -2.788889,1.12566 -3.700485,2.11891 -0.780476,0.85039 -1.445366,4.33459 -0.561836,5.22491 0.825685,0.83204 3.002691,0.42423 4.073484,0.42423 3.542693,0 7.043271,0.26458 10.583332,0.26458 14.103693,0 28.254103,-0.32685 42.333323,-0.26439 4.06838,0.0181 8.1004,0.30436 12.17084,0.157 1.34651,-0.0487 3.39188,0.47594 4.22496,-0.98912 0.86749,-1.52553 -1.64949,-4.43022 -2.60399,-5.50765 -3.79678,-4.28587 -5.58972,-7.45983 -5.58972,-13.23958 v -50.8 -15.875001 c 0,-2.741806 0.3727,-5.789844 -0.26459,-8.466666 h -0.52916 m -16.05547,5.564614 c -1.06897,0.693417 -0.61328,3.136921 -0.61328,4.224968 0,4.314901 0.26458,8.633824 0.26458,12.964585 v 47.88958 c 0,3.73976 -0.33468,7.65686 0.0451,11.37708 0.20709,2.02853 1.63698,3.22258 3.65905,2.26427 5.61895,-2.66298 3.68005,-11.77251 3.70437,-16.81635 0.0782,-16.21306 -2.1e-4,-32.46749 -2.1e-4,-48.683332 0,-4.705995 0.53048,-7.858806 -3.01228,-11.309096 -0.90478,-0.881164 -2.59597,-2.853168 -4.04735,-1.911705 m -48.238275,1.314552 c -1.40174,5.88756 -0.264584,13.260571 -0.264584,19.314581 v 39.95208 14.2875 c 0,1.24471 -0.270413,4.91151 2.071951,3.65558 1.623923,-0.87074 2.05182,-2.79413 2.309799,-4.44933 0.647336,-4.1533 0.116167,-8.76211 0.116167,-12.96458 v -44.45 c 0,-5.129143 1.435829,-12.748929 -4.233333,-15.345831 m 20.164885,2.403907 c -1.406269,0.740571 -0.619196,3.002739 -0.589595,4.210676 0.103595,4.227891 0.0039,8.470738 0.0039,12.699998 v 46.30208 c 0,3.69942 -0.876367,14.59553 6.085417,11.94769 5.68578,-2.16251 3.96875,-11.1438 3.96875,-15.91644 0,-16.1463 -0.04675,-32.29145 -0.265601,-48.41875 -0.04933,-3.635109 -3.771935,-6.219625 -6.008863,-8.730227 -0.650598,-0.730204 -1.992239,-2.727886 -3.193983,-2.095027 M 52.344643,179.15633 c -1.094846,0.14374 -2.464158,-0.0271 -3.414883,0.61328 -1.987702,1.33875 -2.741984,5.50764 -0.525283,6.98491 1.368029,0.9117 3.698547,0.49161 5.263083,0.49161 h 12.435416 47.624994 13.75834 c 1.6403,0 4.14135,0.4614 5.48254,-0.70188 1.4145,-1.22685 1.01527,-6.2725 -0.73455,-7.09965 -1.39119,-0.65765 -3.25692,-0.40056 -4.74799,-0.40056 h -9.78959 c -14.44253,0 -28.927542,0.26459 -43.391661,0.26459 -7.200747,0 -14.793727,-1.09328 -21.960416,-0.1523 z"
       id="path4"
       clip-path="url(#clipPath11)" /><path
       style="display:inline;fill:#8f9194;fill-opacity:1"
       d="m 46.044879,191.08425 c -0.433445,-0.36472 -0.919723,-0.66312 -1.080617,-0.66312 -0.160894,0 -0.292535,-0.0958 -0.292535,-0.21288 0,-0.11709 -0.408963,-0.65937 -0.908807,-1.20507 -1.066816,-1.16469 -1.340648,-2.60805 -1.15735,-6.10035 0.08971,-1.70912 0.279253,-2.53143 0.854544,-3.70728 0.831571,-1.69967 2.398068,-3.43562 3.353847,-3.71664 1.915921,-0.56332 4.128965,-1.60703 4.772933,-2.25099 0.403627,-0.40363 0.859461,-1.25442 1.012965,-1.89064 0.188809,-0.78255 0.299664,-15.75059 0.342671,-46.26823 0.05871,-41.659705 0.09755,-45.173448 0.50766,-45.921605 0.244249,-0.44558 1.577486,-1.677087 2.962748,-2.736681 1.385262,-1.059594 2.554641,-2.009787 2.598619,-2.11154 0.04398,-0.101753 0.54036,-0.466136 1.10307,-0.809738 0.56271,-0.343603 1.532567,-1.052907 2.155238,-1.57623 0.622671,-0.523324 1.524671,-1.249154 2.004446,-1.612956 0.479775,-0.363802 1.448256,-1.15119 2.15218,-1.749752 1.771347,-1.506212 4.252582,-2.20983 8.787337,-2.491875 1.971394,-0.122614 3.920334,-0.387567 4.436132,-0.603081 0.505984,-0.211414 2.446963,-1.885022 4.313286,-3.719129 2.472083,-2.42941 3.619823,-3.377234 4.227642,-3.491261 1.642822,-0.308196 5.05762,0.634989 7.906532,2.183825 0.416893,0.226647 1.488456,0.467772 2.38125,0.535832 l 1.62326,0.123745 1.72813,-1.810297 c 0.95047,-0.995664 2.03715,-2.227017 2.41484,-2.73634 0.37769,-0.509323 1.57923,-1.892772 2.67009,-3.074333 1.09085,-1.18156 2.02824,-2.255194 2.08307,-2.385853 0.16129,-0.384297 3.65994,-1.622376 5.52366,-1.954677 1.88039,-0.33527 5.12583,-1.61162 5.90609,-2.322717 0.59006,-0.537758 2.53039,-1.701085 4.07842,-2.445224 0.61653,-0.296366 1.2458,-0.772101 1.39837,-1.057188 0.15257,-0.285087 0.49093,-0.51834 0.7519,-0.51834 0.26098,0 1.06046,-0.376904 1.77663,-0.837564 0.71617,-0.460659 1.82856,-1.175034 2.47197,-1.5875 1.5544,-0.996457 3.18023,-1.011347 5.14623,-0.04713 l 1.43299,0.702806 1.1295,-0.588725 c 0.62122,-0.323799 1.97407,-1.26514 3.00634,-2.091869 4.89465,-3.920044 5.67057,-4.13025 7.85002,-2.126647 0.64194,0.590147 1.77407,1.527733 2.51584,2.083526 0.74177,0.555793 1.51567,1.170576 1.71979,1.366185 0.7011,0.671879 1.80834,1.274834 2.34105,1.274834 0.29333,0 1.18477,-0.416718 1.98097,-0.926041 1.82029,-1.164421 2.82337,-1.203938 3.87466,-0.152645 l 0.7734,0.773398 0.035,28.000038 c 0.0193,15.400022 0.049,44.787849 0.0662,65.306289 l 0.0311,37.30625 0.63417,1.24067 c 0.61652,1.20614 0.70394,1.26473 3.14032,2.10454 4.83572,1.66686 6.11597,3.67902 6.22245,9.77978 0.0686,3.93346 -0.35909,5.18414 -2.21217,6.46834 l -1.12491,0.77958 -61.31754,0.0678 -61.317539,0.0678 z m 86.666951,-4.36439 0.85989,-0.52429 -0.004,-2.58357 c -0.004,-2.95915 -0.30062,-3.78566 -1.49611,-4.17532 -0.54562,-0.17785 -14.61912,-0.25883 -41.582964,-0.23927 -45.364958,0.0329 -41.425042,-0.1381 -42.65464,1.85143 -0.83649,1.35347 -0.886444,3.98378 -0.09582,5.04531 0.30416,0.40838 0.839941,0.82277 1.190625,0.92087 0.350684,0.0981 19.151824,0.18978 41.780313,0.20374 40.572416,0.025 41.154626,0.0181 42.002606,-0.4989 z m -2.38864,-12.19984 c 0.88217,-0.32975 1.05992,-1.45479 0.36529,-2.31203 -0.31401,-0.38751 -0.75827,-1.12129 -0.98726,-1.63061 -0.22898,-0.50933 -1.20797,-1.77606 -2.17552,-2.81496 -2.65372,-2.84943 -3.93375,-4.86124 -4.52181,-7.10692 -0.18703,-0.71423 -0.27893,-13.87617 -0.28266,-40.48124 -0.003,-23.847656 -0.10277,-39.57669 -0.25167,-39.812132 -0.30025,-0.474766 -0.37439,-0.404175 -0.89507,0.852234 -0.22615,0.545703 -0.50922,0.992187 -0.62904,0.992187 -0.20035,0 -2,3.36604 -2.97063,5.55625 -0.22571,0.509323 -0.48819,0.985573 -0.58327,1.058333 -0.66878,0.511753 -0.75316,4.757116 -0.75316,37.891558 v 34.61936 l -0.82505,1.63443 c -1.29253,2.56047 -2.26563,3.59253 -4.3334,4.59594 -1.68939,0.81979 -2.06145,0.89829 -4.25743,0.89829 -3.95998,0 -5.78138,-0.82743 -8.082996,-3.67196 -0.93189,-1.15171 -1.464358,-2.15661 -1.936471,-3.65462 l -0.651162,-2.06613 -0.07706,-32.67604 -0.07706,-32.676036 h -0.632622 c -0.358427,0 -0.759798,0.229354 -0.926042,0.529166 -0.16138,0.291042 -0.899011,1.243542 -1.639179,2.116667 -0.740168,0.873125 -1.573605,1.939389 -1.852083,2.369476 -0.489352,0.755766 -0.510758,1.815547 -0.638615,31.617707 l -0.132292,30.83573 -0.905448,1.80469 c -1.003414,1.99995 -2.769553,3.91164 -4.386218,4.74771 -0.838127,0.43344 -1.554855,0.54815 -3.444657,0.5513 -3.952658,0.007 -5.917995,-1.26904 -8.128338,-5.27578 l -0.862421,-1.56334 v -35.50686 c 0,-26.689443 -0.07662,-35.583528 -0.308521,-35.8156 -0.235098,-0.235265 -0.864768,-0.230319 -2.645834,0.02078 -2.573319,0.362798 -4.213877,1.166224 -4.451029,2.179791 -0.07655,0.327146 -0.168053,16.251529 -0.203352,35.387519 l -0.06418,34.79271 -0.885747,1.69248 c -1.176692,2.24841 -2.887731,3.67685 -5.392978,4.50225 -0.816671,0.26907 -1.029056,0.49323 -1.230348,1.29857 -0.479777,1.91951 -0.579149,3.93598 -0.2091,4.24309 0.214882,0.17834 2.170663,0.32202 5.091865,0.37407 10.567756,0.1883 67.225808,0.10635 67.772568,-0.098 z M 84.239387,163.92544 c 1.674982,-1.20288 2.440159,-2.51225 2.792876,-4.77914 0.215605,-1.38569 0.270047,-10.14544 0.192943,-31.0444 L 87.117793,98.987876 86.470953,97.9394 c -0.355763,-0.576662 -1.125269,-1.574531 -1.710014,-2.217487 -5.715699,-6.284692 -6.060391,-6.634015 -6.547177,-6.635141 -1.159715,-0.0027 -1.17869,0.315628 -0.985732,16.535398 0.100409,8.44021 0.14663,23.91833 0.102714,34.39583 -0.05342,12.74605 0.01451,19.61834 0.205302,20.76748 0.256883,1.54723 0.405938,1.8289 1.503643,2.84145 1.114707,1.02823 1.338761,1.12421 2.630449,1.12679 1.163536,0.002 1.615569,-0.1434 2.569249,-0.82828 z m 24.805373,0.39502 c 1.6103,-0.82933 2.48144,-1.68213 3.18402,-3.11699 l 0.70544,-1.4407 V 125.68481 91.606852 l -0.70472,-1.39286 c -0.3876,-0.766073 -0.80152,-1.39286 -0.91982,-1.39286 -0.1183,0 -0.9025,-0.657633 -1.74267,-1.461407 -1.62435,-1.553986 -3.2798,-2.316163 -3.83179,-1.764174 -0.22512,0.225126 -0.2881,9.997852 -0.24538,38.078279 0.0316,20.77648 0.12813,38.34552 0.21448,39.04231 0.12495,1.00821 0.29834,1.34369 0.84919,1.64305 0.91335,0.49637 1.46901,0.48773 2.49125,-0.0387 z m -48.877933,-0.82069 c 0.503822,-0.5457 1.035669,-1.42956 1.181883,-1.96413 0.17353,-0.63444 0.241226,-13.1296 0.194951,-35.98333 L 61.472768,90.540924 60.85564,89.718822 c -0.33942,-0.452157 -1.15567,-1.272269 -1.813889,-1.822472 -0.94799,-0.792421 -1.245108,-0.924025 -1.429342,-0.633106 -0.329045,0.51959 -0.312007,75.683756 0.01735,76.550036 0.390897,1.02814 1.415259,0.90155 2.537066,-0.31351 z"
       id="path3"
       clip-path="url(#clipPath10)" /><path
       style="display:inline;fill:#f9f9f9"
       d="m 46.822313,190.85887 c -0.162502,-0.1958 -0.742628,-0.56142 -1.289168,-0.81248 -0.598706,-0.27502 -1.282935,-0.90966 -1.721314,-1.59655 -0.682605,-1.06956 -0.727604,-1.32338 -0.727604,-4.10411 0,-2.73458 0.06375,-3.11084 0.823507,-4.86046 0.995034,-2.29144 1.984349,-3.28908 3.491618,-3.52101 2.408979,-0.37068 4.802243,-1.99651 5.715284,-3.8826 l 0.552924,-1.14219 v -45.44219 c 0,-33.240093 0.08021,-45.597368 0.298731,-46.020104 0.164301,-0.317855 0.789379,-1.025279 1.389062,-1.572052 0.599682,-0.546774 1.387988,-1.278945 1.75179,-1.627047 0.363802,-0.348103 0.929349,-0.712438 1.256771,-0.809634 0.327422,-0.0972 0.595312,-0.286161 0.595312,-0.419922 0,-0.133762 0.386953,-0.414044 0.859896,-0.62285 0.472943,-0.208806 1.563097,-1.043359 2.422564,-1.854564 0.859467,-0.811204 2.114247,-1.828863 2.788398,-2.261465 0.674151,-0.432602 1.471709,-1.119253 1.772351,-1.525893 0.395423,-0.534839 0.941465,-0.828926 1.974101,-1.06321 0.785115,-0.178127 2.078507,-0.503988 2.874204,-0.724136 0.795698,-0.220148 2.274226,-0.40027 3.285619,-0.40027 1.011393,0 2.618457,-0.135754 3.571254,-0.301677 l 1.732358,-0.301677 2.856667,-2.873323 c 1.571166,-1.580327 2.905558,-2.873322 2.965316,-2.873322 0.05976,0 0.481378,-0.372729 0.936936,-0.828287 0.804902,-0.804902 0.880783,-0.82453 2.687794,-0.695239 1.329548,0.09513 2.076784,0.293686 2.621879,0.696692 0.419305,0.310005 1.363814,0.692632 2.09891,0.850282 0.735096,0.15765 1.531808,0.481906 1.770471,0.720569 0.288529,0.288529 1.021484,0.467133 2.187374,0.533011 l 1.753442,0.09908 1.44679,-1.421787 c 1.6513,-1.622756 5.54848,-5.930316 5.94472,-6.570709 1.66381,-2.689029 1.9186,-2.908611 3.37505,-2.908611 0.87726,0 2.71571,-0.506746 4.29786,-1.184649 0.43656,-0.187054 1.21938,-0.415231 1.73958,-0.507059 0.52021,-0.09183 1.18176,-0.386761 1.47012,-0.655405 0.28835,-0.268645 0.99382,-0.641942 1.56771,-0.82955 0.57388,-0.187608 1.30563,-0.62117 1.6261,-0.963471 0.32048,-0.342301 0.83992,-0.622366 1.15432,-0.622366 0.31439,0 0.94516,-0.303825 1.40169,-0.675167 2.39138,-1.945135 3.15938,-2.499832 3.46112,-2.499832 0.18261,0 0.85596,-0.355021 1.49632,-0.788936 0.64036,-0.433914 1.34952,-0.791102 1.57591,-0.79375 0.22639,-0.0026 0.81507,-0.302471 1.30817,-0.666273 1.11795,-0.824796 1.46608,-0.824796 3.0173,0 1.86172,0.989887 3.38205,0.908042 5.05334,-0.272041 0.72714,-0.513425 1.4552,-1.110023 1.61791,-1.325773 0.42626,-0.565203 1.91006,-1.599162 3.19384,-2.225569 0.60964,-0.297467 1.18222,-0.660224 1.27239,-0.806128 0.23508,-0.380374 2.18296,-0.328012 2.43468,0.06545 0.11637,0.181901 0.80548,0.806979 1.53136,1.389062 0.72588,0.582084 1.55544,1.296459 1.84348,1.5875 1.70912,1.726994 2.64061,2.243791 4.04893,2.246391 1.12848,0.0021 1.59837,-0.147396 2.48709,-0.791182 1.41795,-1.027157 2.6194,-1.061515 3.37839,-0.09661 l 0.54837,0.69714 v 65.541283 65.54128 l 0.76149,1.0512 c 0.82154,1.13411 2.73616,2.21771 4.84722,2.74335 1.87657,0.46726 3.23849,1.86472 3.59927,3.69318 0.49876,2.52781 0.63891,7.13604 0.26143,8.59595 -0.29519,1.14166 -0.51952,1.43643 -1.66117,2.18281 l -1.31989,0.86291 h -60.89094 c -50.695681,0 -60.940409,-0.0596 -61.186397,-0.35601 z m 86.881697,-3.43141 c 1.46982,-0.44454 2.77176,-0.47497 17.56312,-0.41058 l 15.97562,0.0696 0.49469,-0.61092 c 0.34976,-0.43193 0.4947,-1.03909 0.4947,-2.07227 0,-1.57655 -0.46695,-3.50711 -0.84827,-3.50711 -0.12943,0 -0.50305,-0.28887 -0.83026,-0.64194 l -0.59492,-0.64193 -16.12734,-0.15834 c -8.87003,-0.0871 -16.66312,-0.22913 -17.31796,-0.31564 -1.68314,-0.22237 -82.240297,-0.20851 -83.244343,0.0143 -1.258794,0.27937 -2.485572,1.97259 -2.72903,3.76664 -0.109189,0.80462 -0.144908,1.74343 -0.07937,2.08624 0.164268,0.85932 1.798121,2.70952 2.516044,2.84921 0.324407,0.0631 19.163581,0.10085 41.864829,0.0838 39.0592,-0.0293 41.36022,-0.0567 42.86249,-0.51106 z m -2.33616,-12.23762 c 0.92808,-0.34217 3.13427,-0.41533 13.88347,-0.46043 l 12.78004,-0.0536 0.29634,-0.59441 c 0.33245,-0.66683 -0.0668,-3.41857 -0.65557,-4.51876 -0.34254,-0.64005 -1.74287,-1.3665 -2.63411,-1.3665 -0.6274,0 -3.15301,-2.70966 -3.66293,-3.92986 -0.20391,-0.48793 -0.43881,-1.97622 -0.52199,-3.30729 -0.0832,-1.33108 -0.1856,-24.74436 -0.22758,-52.02952 -0.042,-27.28515 -0.0863,-49.813584 -0.0984,-50.063182 -0.0264,-0.542657 -1.53651,-2.325073 -1.9677,-2.322503 -0.36835,0.0022 -1.36968,1.467785 -1.62571,2.379442 -0.17223,0.613285 -0.80388,1.701025 -2.04152,3.515601 -0.52397,0.768239 -0.93217,1.790606 -1.87114,4.686482 -0.55606,1.714943 -0.55804,1.850336 -0.704,48.02187 l -0.14637,46.30208 -0.92253,1.71979 c -1.32758,2.47489 -3.20617,4.14348 -5.55976,4.93828 -1.82302,0.61563 -7.38384,0.29458 -7.62885,-0.44045 -0.0577,-0.17302 -0.45239,-0.62422 -0.87714,-1.00268 -0.86109,-0.76724 -2.68289,-3.53262 -2.99978,-4.55348 -0.11293,-0.3638 -0.42744,-0.97696 -0.69893,-1.36257 -0.4758,-0.67581 -0.49602,-2.15507 -0.5606,-41.00679 -0.0598,-35.992968 -0.11045,-40.314057 -0.47318,-40.383908 -0.24966,-0.04808 -0.64045,0.358377 -1.01408,1.054714 -0.33433,0.623114 -0.89067,1.653989 -1.23629,2.290833 -0.34563,0.636844 -0.87156,1.328205 -1.16874,1.536357 -0.29718,0.208152 -0.54033,0.592099 -0.54033,0.853216 0,0.261116 -0.31297,1.058036 -0.6955,1.770934 -1.58978,2.962788 -1.50719,1.013588 -1.66936,39.396174 -0.14006,33.14932 -0.17632,35.25094 -0.62548,36.24792 -0.88461,1.96353 -2.32189,3.79893 -3.11054,3.97214 -0.40683,0.0894 -1.05453,0.47731 -1.43934,0.86211 -0.65818,0.65818 -0.85926,0.702 -3.39273,0.73932 -1.4812,0.0218 -3.05028,-0.0612 -3.48684,-0.18448 -1.05086,-0.29674 -3.71333,-2.32372 -4.945151,-3.76483 -1.86061,-2.17672 -1.801261,-0.91868 -1.801505,-38.18729 -1.36e-4,-20.77987 -0.09447,-33.181703 -0.253153,-33.279772 -0.474598,-0.293318 -2.06062,0.59763 -2.822836,1.585728 -0.418377,0.542363 -1.504826,1.87542 -2.414331,2.962349 L 90.180058,99.1891 v 30.89596 30.89596 l -0.551643,0.7013 c -0.303403,0.38571 -0.674297,1.14552 -0.824209,1.68845 -0.262339,0.95011 -1.547966,2.3825 -3.29944,3.67607 -1.797358,1.32747 -5.307277,1.456 -7.07123,0.25895 -0.565027,-0.38344 -1.169373,-0.69716 -1.342992,-0.69716 -0.774161,0 -2.592538,-2.92515 -3.453964,-5.55625 -0.452681,-1.38265 -0.466897,-3.0713 -0.285114,-33.86667 0.229306,-38.845815 0.211959,-35.397114 0.183317,-36.446349 -0.03377,-1.237186 -0.880242,-2.003145 -1.95894,-1.772622 -0.463462,0.09904 -0.964698,0.27774 -1.113856,0.397102 -0.149159,0.119361 -0.923065,0.300398 -1.719792,0.402303 -1.736242,0.222074 -2.7688,0.703721 -3.226688,1.505122 -0.268381,0.469724 -0.365999,7.750804 -0.470864,35.120694 l -0.132292,34.52813 -0.766604,1.94074 c -1.035171,2.62065 -3.474697,5.11564 -5.129332,5.24595 -0.517866,0.0408 -1.042662,0.17524 -1.166213,0.29879 -0.123551,0.12355 -0.385039,1.14704 -0.581085,2.27442 -0.196046,1.12738 -0.491284,2.18461 -0.656085,2.34942 -0.443793,0.44379 -0.363249,1.66364 0.137313,2.07963 0.629287,0.52297 10.059676,0.64104 44.542215,0.55767 25.2948,-0.0612 29.11192,-0.12168 30.07529,-0.47687 z M 60.736701,163.51409 c 0.677025,-0.71365 1.197401,-1.55927 1.322916,-2.14978 0.27551,-1.29617 0.26749,-68.018903 -0.0084,-69.946146 -0.201774,-1.409465 -0.338795,-1.629109 -2.179732,-3.494091 -1.910372,-1.935325 -1.973607,-1.974022 -2.298232,-1.406407 -0.52445,0.917012 -0.486147,77.444854 0.03908,78.077694 0.587108,0.70741 1.838273,0.27441 3.124378,-1.08127 z m 22.962108,1.24206 c 1.117033,-0.4247 2.75532,-1.89693 3.38546,-3.04231 l 0.582247,-1.05834 0.07346,-30.55937 c 0.06773,-28.17564 0.03853,-30.651527 -0.374349,-31.740771 -0.313181,-0.826224 -1.336279,-2.098927 -3.403082,-4.233333 -1.6254,-1.678565 -3.466403,-3.617483 -4.091118,-4.308706 -1.194433,-1.321595 -2.09005,-1.596614 -3.009656,-0.924181 -0.426264,0.311691 -0.454037,2.560262 -0.442008,35.784891 0.0071,19.49877 0.0897,35.74996 0.183638,36.11376 0.272212,1.05419 1.2861,2.50863 2.373718,3.40513 0.865925,0.71377 1.213399,0.82821 2.514749,0.82821 0.830495,0 1.823619,-0.11924 2.206941,-0.26498 z m 26.558981,-0.61329 c 0.38063,-0.35451 0.96011,-0.78246 1.28773,-0.95099 0.32762,-0.16852 0.89316,-0.89349 1.25677,-1.61103 l 0.6611,-1.30462 V 125.65237 91.028521 l -0.81868,-1.235986 c -0.45028,-0.679792 -0.9305,-1.235986 -1.06716,-1.235986 -0.13665,0 -0.65365,-0.386953 -1.14889,-0.859896 -3.37001,-3.21834 -3.92142,-3.563039 -5.77758,-3.611647 -1.21007,-0.03169 -2.08569,0.800435 -3.50657,3.332363 l -0.91974,1.638945 0.0709,35.138136 0.0709,35.13814 1.05833,1.65292 c 0.58208,0.90911 1.26503,1.72028 1.51766,1.8026 0.25263,0.0823 0.80122,0.49156 1.21909,0.90943 0.96915,0.96915 2.18366,1.33485 3.97952,1.19826 1.04438,-0.0794 1.60932,-0.2804 2.11667,-0.75294 z m 26.22435,-1.2005 1.71979,-1.56076 0.0771,-45.34221 c 0.0424,-24.938219 0.0106,-45.699403 -0.0707,-46.135965 -0.15264,-0.819454 -1.58252,-1.981919 -3.94766,-3.209375 -0.59722,-0.309948 -1.31268,-0.815963 -1.58989,-1.124479 -0.27722,-0.308516 -0.74409,-0.560938 -1.0375,-0.560938 -0.58667,0 -1.50033,0.708652 -1.50266,1.165487 -0.005,0.984078 -0.71313,2.465234 -1.72129,3.600366 -0.64052,0.721194 -1.27309,1.521489 -1.40572,1.778433 -0.13262,0.256945 -0.32583,2.134047 -0.42936,4.171339 -0.22758,4.478375 -0.20765,78.649092 0.022,82.020832 0.1752,2.57191 0.54195,3.43784 1.96108,4.6302 0.43298,0.36381 1.1205,0.96285 1.5278,1.33121 0.63374,0.57315 1.02447,0.67891 2.70885,0.73319 l 1.96829,0.0634 z m 21.6382,-54.81057 c 0.0798,-60.10946 0.12991,-57.670196 -1.16571,-56.762707 -0.3089,0.216366 -0.69574,0.92593 -0.85963,1.576809 -0.16389,0.650879 -0.42926,1.264549 -0.58971,1.363712 -0.16045,0.09916 -0.47597,0.612245 -0.70116,1.140184 -0.36537,0.856608 -0.4049,6.582323 -0.36741,53.215092 0.0231,28.74036 0.11735,52.67193 0.20943,53.18125 0.23729,1.31252 1.58798,2.64535 2.60578,2.57129 l 0.79375,-0.0577 z"
       id="path2"
       clip-path="url(#clipPath9)" /><rect
       style="display:inline;fill:#009060;fill-opacity:1;stroke-width:0.264583"
       id="rect5"
       width="162.36615"
       height="33.917427"
       x="-25.980774"
       y="229.78252"
       clip-path="url(#clipPath8)" /><rect
       style="display:inline;fill:#4c160c;fill-opacity:1;stroke-width:0.264583"
       id="rect6"
       width="108.57426"
       height="33.930115"
       x="136.38803"
       y="229.7925"
       ry="0"
       rx="0"
       clip-path="url(#clipPath7)"
       inkscape:export-filename="apple-touch-icon.png"
       inkscape:export-xdpi="16.874863"
       inkscape:export-ydpi="16.874863" /></g></svg>
